<?xml version="1.0" standalone="no"?><!DOCTYPE svg PUBLIC "-//W3C//DTD SVG 1.1//EN" "http://www.w3.org/Graphics/SVG/1.1/DTD/svg11.dtd"><svg t="1583747624981" class="icon" viewBox="0 0 1194 1024" version="1.1" xmlns="http://www.w3.org/2000/svg" p-id="8492" xmlns:xlink="http://www.w3.org/1999/xlink" width="233.203125" height="200"><defs><style type="text/css"></style></defs><path d="M233.306358 142.552861h4.36503c275.638121 0 551.273232-0.024083 826.911353 0.045155 23.285179 0.006021 45.053134 6.017721 64.656636 18.814786 20.32599 13.272703 34.423533 31.331887 40.862705 54.97831 2.911024 10.674757 3.470952 21.533146 2.354106 32.517971-1.134908 11.171467-2.164453 22.354976-3.269257 33.532465-1.309509 13.269692-2.661163 26.536374-3.967662 39.809077-1.092763 11.075136-2.14037 22.156292-3.233133 33.234438-1.306499 13.269692-2.646112 26.539385-3.95261 39.809077-0.897089 9.082274-1.761064 18.164547-2.655143 27.24381-1.110825 11.27683-2.245733 22.55065-3.356558 33.82447-1.092763 11.075136-2.125318 22.156292-3.263236 33.228417-0.975359 9.4676-1.408851 19.007449-3.829186 28.282387-4.458352 17.074795-12.953604 31.915898-25.136554 44.583517-20.187513 20.98827-44.983896 33.123055-73.597422 37.756007-7.838992 1.270374-15.741203 1.721929-23.673517 1.721929H363.321045c-0.072249 2.772547 16.027187 58.063935 18.805755 64.761999 0.635187 0.054187 1.321551 0.144498 2.013935 0.156539 1.40283 0.027093 2.808671 0.009031 4.214512 0.009031l195.360697 0.099342c45.555865 0.027093 91.10872 0.054187 136.658564 0.102353 45.850881 0.051176 91.704772 0.129446 137.555654 0.195674 45.552855 0.063218 91.10571 0.135466 136.655554 0.198684 23.179816 0.036124 46.356623 0.048166 69.536439 0.105363 22.050929 0.057197 39.249149 18.962294 37.274349 40.925922-1.764074 19.630595-17.782231 34.294087-37.566354 34.32118-21.07256 0.030104-42.14211 0.018062-63.214671 0.006021-44.953792-0.027093-89.901563-0.054187-134.855356-0.102352-46.455965-0.051176-92.908919-0.123425-139.364883-0.195674-37.220162-0.060207-74.443335-0.159549-111.669518-0.195674-54.183574-0.057197-108.364137-0.066228-162.547711-0.105363-32.50894-0.024083-65.01788-0.057197-97.526819-0.102352-17.631712-0.027093-31.985136-10.659705-37.042551-27.541837-8.483211-28.321521-17.162095-56.588856-25.272021-85.015739-16.523898-57.919437-32.722676-115.938217-49.059931-173.911841-24.19732-85.852621-48.403671-171.702232-72.597981-257.551844-7.351313-26.048695-14.705637-52.091369-21.966639-78.158126-0.599063-2.14338-1.56539-2.992304-3.793061-3.377631-23.306252-4.027869-46.591431-8.197226-69.87962-12.327448-8.191205-1.450996-16.394452-2.838775-24.570606-4.36503-17.854479-3.332475-30.61542-18.715444-30.660575-36.858918A37.680748 37.680748 0 0 1 50.273108 25.913229c6.147167-1.207157 12.152847-0.367265 18.209703 0.716467 26.738069 4.780461 53.4942 9.46459 80.2413 14.196885 12.140805 2.146391 24.332787 4.045932 36.395322 6.562597 14.588233 3.04348 24.389983 11.966204 28.613526 26.247379 6.454224 21.81311 12.438831 43.767708 18.625133 65.659088 0.270933 0.966327 0.559928 1.923624 0.948266 3.257216z m21.159861 75.259144l87.050747 308.863528h4.575756c225.271691 0 450.543383 0.00301 675.812063-0.024083 3.70275 0 7.432593-0.147508 11.102229-0.608094 10.361679-1.300478 19.790145-5.012259 28.002423-11.562815 7.339272-5.849141 11.659147-13.122184 12.026411-22.863728 0.337161-8.901652 1.622587-17.767179 2.495593-26.650768l3.431817-34.724569c0.879027-8.880579 1.746012-17.761158 2.62805-26.644747 1.116846-11.27683 2.248743-22.55065 3.356557-33.82447 1.086742-11.075136 2.14037-22.156292 3.233133-33.231428 1.110825-11.27683 2.257774-22.54764 3.37161-33.82447 1.125877-11.373162 2.236702-22.752344 3.350537-34.128517 0.90913-9.280958 1.785147-18.564926 2.736422-27.842873 0.487679-4.750357-1.116846-8.72404-4.434268-11.972224-1.848365-1.80923-3.883372-3.519118-6.08395-4.858731-7.315189-4.44631-15.407052-6.099001-23.881231-6.099001-268.316912-0.006021-536.636833-0.006021-804.953745-0.00602l-3.820154 0.00301zM905.027334 902.546793c0.433493-54.695336 45.299984-94.98005 95.79285-94.290677 51.591649 0.698405 94.447216 43.581065 93.209955 96.801322-1.174043 50.429647-42.813422 92.791515-95.71759 92.165358-50.215911-0.596052-93.08051-41.172773-93.285215-94.676003z m94.567631-33.99305c-18.944232-0.00301-34.339242 15.3047-34.360315 34.16163-0.024083 18.808765 15.464249 34.285056 34.297097 34.273015a34.143569 34.143569 0 0 0 34.2399-34.209797 34.047237 34.047237 0 0 0-34.176682-34.224848zM476.552943 903.004369c0.021073 50.375461-41.23599 91.512109-92.002799 91.214082-51.260508-0.304047-91.701762-42.759235-90.916056-92.933001 0.779685-49.821554 42.259515-90.94014 93.237048-90.000906 48.677615 0.891068 89.925646 40.859695 89.681807 91.719825z m-128.647981-0.234809a37.144903 37.144903 0 0 0 37.301442 37.229194c20.461456-0.024083 37.123831-16.668395 37.156945-37.123831 0.033114-20.681213-16.550991-37.171997-37.19608-37.373691-20.259762-0.201695-37.638603 16.972442-37.262307 37.268328z" p-id="8493" fill="#d81e06"></path></svg>